<?xml version="1.0" encoding="UTF-8" standalone="no"?>
<!-- Created with Inkscape (http://www.inkscape.org/) -->
<svg
   xmlns:dc="http://purl.org/dc/elements/1.1/"
   xmlns:cc="http://web.resource.org/cc/"
   xmlns:rdf="http://www.w3.org/1999/02/22-rdf-syntax-ns#"
   xmlns:svg="http://www.w3.org/2000/svg"
   xmlns="http://www.w3.org/2000/svg"
   xmlns:sodipodi="http://sodipodi.sourceforge.net/DTD/sodipodi-0.dtd"
   xmlns:inkscape="http://www.inkscape.org/namespaces/inkscape"
   version="1.0"
   width="130"
   height="460"
   id="svg2222"
   sodipodi:version="0.32"
   inkscape:version="0.45.1"
   sodipodi:docname="Cinggis_qagan.svg"
   inkscape:output_extension="org.inkscape.output.svg.inkscape"
   sodipodi:docbase="C:\Bilder">
  <metadata
     id="metadata2299">
    <rdf:RDF>
      <cc:Work
         rdf:about="">
        <dc:format>image/svg+xml</dc:format>
        <dc:type
           rdf:resource="http://purl.org/dc/dcmitype/StillImage" />
      </cc:Work>
    </rdf:RDF>
  </metadata>
  <sodipodi:namedview
     inkscape:window-height="575"
     inkscape:window-width="825"
     inkscape:pageshadow="2"
     inkscape:pageopacity="0.0"
     guidetolerance="10.0"
     gridtolerance="10.0"
     objecttolerance="10.0"
     borderopacity="1.0"
     bordercolor="#666666"
     pagecolor="#ffffff"
     id="base"
     inkscape:zoom="0.81956522"
     inkscape:cx="65"
     inkscape:cy="230"
     inkscape:window-x="23"
     inkscape:window-y="23"
     inkscape:current-layer="svg2222" />
  <defs
     id="defs2224" />
  <g
     transform="translate(-242.09766,33.555984)"
     id="layer1">
    <path
       transform="matrix(0,1,-1,0,0,0)"
       style="font-size:144px;font-style:normal;font-weight:normal;fill:#000000;fill-opacity:1;stroke:none;stroke-width:1px;stroke-linecap:butt;stroke-linejoin:miter;stroke-opacity:1;font-family:Mongolian Baiti"
       d="M 19.608078,-310.17839 L 19.608078,-297.38152 L 4.9127655,-297.38152 C 4.6314795,-296.16272 4.385386,-294.92053 4.1744843,-293.65495 C 3.9635114,-292.38928 3.8580428,-290.98303 3.858078,-289.4362 C 3.8580428,-287.09241 4.0103864,-284.81898 4.3151093,-282.61589 C 4.6197608,-280.41273 4.9830417,-278.36195 5.404953,-276.46355 C 5.8267908,-274.56508 6.2369466,-272.90102 6.6354218,-271.47136 C 7.0338209,-270.04165 7.3267893,-268.95181 7.514328,-268.20183 L -10.696609,-268.20183 C -13.087253,-268.20181 -14.997407,-267.61587 -16.427078,-266.44402 C -17.856779,-265.27212 -18.852872,-263.70181 -19.415359,-261.73308 C -19.930996,-261.77994 -20.411464,-261.97916 -20.856766,-262.33073 C -21.302088,-262.68228 -21.677088,-263.10415 -21.981766,-263.59636 C -22.286462,-264.08853 -22.532556,-264.62759 -22.720047,-265.21355 C -22.907555,-265.79946 -23.001305,-266.37368 -23.001297,-266.9362 C -23.001305,-268.85806 -22.755212,-270.67446 -22.263016,-272.38542 C -21.770838,-274.09633 -21.00912,-275.58461 -19.977859,-276.85027 C -18.946622,-278.11586 -17.657561,-279.12367 -16.110672,-279.8737 C -14.563814,-280.62367 -12.759128,-280.99867 -10.696609,-280.9987 L -0.9934845,-280.9987 C -1.0403898,-281.74867 -1.0872648,-282.49867 -1.1341095,-283.2487 C -1.1810147,-283.99867 -1.2044522,-284.74866 -1.204422,-285.4987 C -1.2044522,-289.24866 -0.73570263,-293.20959 0.201828,-297.38152 L -28.555984,-297.38152 L -28.555984,-310.17839 L 19.608078,-310.17839 z M 48.787766,-310.17839 L 48.787766,-297.38152 L 19.537766,-297.38152 L 34.162766,-276.56902 L 34.162766,-274.88152 L 31.069016,-260.25652 L 29.451828,-260.25652 L 14.756516,-297.38152 L 14.756516,-310.17839 L 48.787766,-310.17839 z M 98.147141,-310.17839 L 98.147141,-297.38152 L 93.928391,-297.38152 C 93.412716,-297.38146 92.861935,-297.67443 92.276047,-298.26042 C 91.690062,-298.84631 91.303343,-299.51427 91.115891,-300.26433 C 90.693969,-302.18615 90.260375,-304.19005 89.815109,-306.27605 C 89.369751,-308.36192 88.748658,-310.2838 87.951828,-312.04167 C 87.15491,-313.79942 86.04163,-315.25254 84.611984,-316.40105 C 83.182258,-317.54941 81.272103,-318.12363 78.881516,-318.1237 C 77.756482,-318.12363 76.584608,-317.93613 75.365891,-317.5612 C 74.14711,-317.18613 73.022111,-316.47129 71.990891,-315.41667 C 70.959614,-314.36192 70.115864,-312.92051 69.459641,-311.09245 C 68.803366,-309.26427 68.475241,-306.92052 68.475266,-304.0612 C 68.475241,-302.37365 68.815084,-300.7799 69.494797,-299.27995 C 70.174458,-297.7799 71.006489,-296.35022 71.990891,-294.99089 C 72.975237,-293.63147 74.029923,-292.34241 75.154953,-291.1237 C 76.279921,-289.90491 77.287732,-288.77991 78.178391,-287.7487 L 76.279953,-276.07683 L 75.365891,-276.07683 C 75.084609,-276.6393 74.697891,-277.28383 74.205734,-278.01042 C 73.713517,-278.73695 73.186174,-279.51039 72.623703,-280.33073 C 72.061175,-281.15101 71.486957,-281.98304 70.901047,-282.82683 C 70.315083,-283.67054 69.811177,-284.44398 69.389328,-285.14714 C 68.920553,-285.8971 68.451804,-286.75257 67.983078,-287.71355 C 67.514304,-288.67444 67.080711,-289.68225 66.682297,-290.73698 C 66.283837,-291.79163 65.967431,-292.88147 65.733078,-294.00652 C 65.498682,-295.13147 65.381494,-296.25647 65.381516,-297.38152 L 54.623703,-297.38152 C 54.529942,-296.25647 54.389318,-294.68615 54.201828,-292.67058 C 54.014318,-290.65491 53.803381,-288.55725 53.569016,-286.37761 C 53.334631,-284.19788 53.053381,-282.12367 52.725266,-280.15495 C 52.397132,-278.18617 52.069007,-276.6393 51.740891,-275.51433 L 49.279953,-274.74089 C 47.873699,-278.25648 46.736982,-281.93617 45.869797,-285.77995 C 45.002608,-289.62366 44.381515,-293.49084 44.006516,-297.38152 L 44.006516,-310.17839 L 65.381516,-310.17839 C 65.709619,-314.30332 66.412743,-317.61973 67.490891,-320.12761 C 68.568991,-322.63535 69.78774,-324.58066 71.147141,-325.96355 C 72.506487,-327.34628 73.901017,-328.26034 75.330734,-328.70573 C 76.760389,-329.15096 77.967419,-329.37362 78.951828,-329.3737 C 81.108041,-329.37362 83.029914,-328.858 84.717453,-327.82683 C 86.404911,-326.7955 87.858034,-325.41269 89.076828,-323.67839 C 90.295532,-321.94394 91.315062,-319.90488 92.135422,-317.5612 C 92.955685,-315.21738 93.553341,-312.75645 93.928391,-310.17839 L 98.147141,-310.17839 z M 152.77995,-310.17839 L 152.77995,-297.38152 L 127.88933,-297.38152 C 128.82679,-293.72522 130.16273,-290.26819 131.89714,-287.01042 C 133.63148,-283.75257 135.71741,-280.71742 138.15495,-277.90495 L 136.1862,-266.3737 L 134.42839,-266.3737 C 132.03773,-269.84243 130.11585,-273.08852 128.66277,-276.11198 C 127.20961,-279.13539 126.03773,-282.08851 125.14714,-284.97136 C 124.25649,-287.85413 123.52992,-290.7135 122.96745,-293.54948 C 122.40492,-296.38537 121.84243,-299.35021 121.27995,-302.44402 C 120.7643,-305.11583 120.27211,-307.94005 119.80339,-310.91667 C 119.33462,-313.89317 118.72524,-316.63535 117.97527,-319.14323 C 117.22524,-321.65097 116.26431,-323.72519 115.09245,-325.36589 C 113.92056,-327.00643 112.35025,-327.82675 110.38152,-327.82683 C 108.78775,-327.82675 107.40494,-327.41659 106.23308,-326.59636 C 105.06119,-325.77597 104.05338,-324.70956 103.20964,-323.39714 C 102.36588,-322.08456 101.66276,-320.57285 101.10027,-318.86198 C 100.53776,-317.15098 100.09245,-315.4166 99.764328,-313.65886 C 99.436198,-311.90098 99.201823,-310.16661 99.061203,-308.45573 C 98.920573,-306.74474 98.850261,-305.23302 98.850266,-303.92058 C 98.850261,-301.3424 99.061198,-299.02209 99.483078,-296.95964 C 99.904947,-294.89709 100.54948,-292.9635 101.41667,-291.15886 C 102.28385,-289.35413 103.37369,-287.5846 104.6862,-285.85027 C 105.99869,-284.11585 107.54556,-282.28773 109.32683,-280.36589 L 106.02214,-269.11589 L 104.75652,-269.11589 C 101.47526,-273.38149 98.873698,-277.97523 96.951828,-282.89714 C 95.029952,-287.81897 94.069016,-292.64709 94.069016,-297.38152 L 94.069016,-310.17839 C 94.39714,-313.9752 94.971358,-317.61973 95.791672,-321.11198 C 96.611982,-324.60409 97.713543,-327.68612 99.096359,-330.35808 C 100.47917,-333.02987 102.11979,-335.15096 104.01823,-336.72136 C 105.91666,-338.29158 108.10806,-339.07674 110.59245,-339.07683 C 113.02993,-339.07674 115.10415,-338.37361 116.81511,-336.96745 C 118.52602,-335.56111 119.95571,-333.58065 121.10417,-331.02605 C 122.25258,-328.47128 123.15492,-325.42441 123.8112,-321.88542 C 124.46742,-318.34629 124.93617,-314.44395 125.21745,-310.17839 L 152.77995,-310.17839 z M 198.6237,-332.1862 C 198.62365,-331.76424 198.41271,-331.02596 197.99089,-329.97136 C 197.56897,-328.91659 197.00647,-327.63925 196.30339,-326.13933 C 195.03772,-323.37363 193.61975,-320.36191 192.04948,-317.10417 C 190.47913,-313.84629 189.02601,-310.42442 187.69011,-306.83855 C 186.35413,-303.25255 185.22913,-299.57287 184.31511,-295.79948 C 183.40101,-292.026 182.94398,-288.28772 182.94402,-284.58464 C 182.94398,-283.31898 182.96742,-282.11195 183.01433,-280.96355 C 183.06117,-279.81508 183.13148,-278.77211 183.22527,-277.83464 L 179.92058,-279.17058 C 177.5768,-281.93617 175.65493,-284.97132 174.15495,-288.27605 C 172.65493,-291.58069 171.4479,-294.94397 170.53386,-298.36589 C 169.61977,-301.78771 168.95181,-305.12755 168.52995,-308.38542 C 168.10806,-311.64317 167.81509,-314.61973 167.65105,-317.31511 C 167.48696,-320.01035 167.39321,-322.2955 167.3698,-324.17058 C 167.34634,-326.0455 167.28775,-327.28768 167.19402,-327.89714 C 166.6315,-327.89706 165.96353,-327.36972 165.19011,-326.31511 C 164.41666,-325.26034 163.60806,-323.85409 162.76433,-322.09636 C 161.92056,-320.33847 161.07681,-318.31113 160.23308,-316.01433 C 159.38932,-313.71739 158.63932,-311.3502 157.98308,-308.91277 C 157.42057,-306.94395 156.96354,-304.86974 156.61198,-302.69011 C 156.26041,-300.51037 155.96744,-298.45959 155.73308,-296.53777 C 155.4987,-294.61584 155.33463,-292.89319 155.24089,-291.3698 C 155.14713,-289.84632 155.10026,-288.75647 155.10027,-288.10027 C 155.10026,-286.17835 155.15885,-284.27991 155.27605,-282.40495 C 155.39323,-280.52992 155.61588,-278.63148 155.94402,-276.70964 L 153.83464,-274.88152 C 150.50651,-279.33461 148.49089,-286.8346 147.78777,-297.38152 L 147.78777,-310.17839 L 150.88152,-310.17839 C 151.58464,-312.42832 152.39323,-314.64317 153.3073,-316.82292 C 154.22135,-319.00254 155.18229,-321.06503 156.19011,-323.01042 C 157.19791,-324.95566 158.24088,-326.76034 159.31902,-328.42448 C 160.39713,-330.08846 161.45181,-331.50643 162.48308,-332.67839 C 166.60806,-336.94392 169.60806,-339.07674 171.48308,-339.07683 C 172.09243,-339.07674 172.58462,-338.79549 172.95964,-338.23308 C 173.33461,-337.67049 173.52211,-336.8033 173.52214,-335.63152 C 173.52211,-335.35018 173.48696,-334.58846 173.41667,-333.34636 C 173.34633,-332.10409 173.29946,-330.52206 173.27605,-328.60027 C 173.25258,-326.67831 173.2643,-324.52206 173.3112,-322.13152 C 173.35805,-319.74082 173.47524,-317.27988 173.66277,-314.7487 C 173.85024,-312.21739 174.14321,-309.68614 174.54167,-307.15495 C 174.94008,-304.62364 175.49086,-302.2799 176.19402,-300.1237 C 176.99086,-302.32677 177.98695,-304.64708 179.1823,-307.08464 C 180.37758,-309.52208 181.6432,-311.93614 182.97917,-314.32683 C 184.31507,-316.71738 185.67445,-319.01426 187.0573,-321.21745 C 188.44007,-323.4205 189.76429,-325.41269 191.02995,-327.19402 C 192.48303,-329.20956 193.74866,-330.82674 194.82683,-332.04558 C 195.9049,-333.26424 196.63147,-333.87362 197.00652,-333.8737 C 197.33459,-333.87362 197.68615,-333.75643 198.0612,-333.52214 C 198.43615,-333.28768 198.62365,-332.84237 198.6237,-332.1862 L 198.6237,-332.1862 z M 293.33464,-310.17839 L 293.33464,-297.38152 L 280.39714,-297.38152 C 279.78772,-293.49084 279.09632,-289.69397 278.32292,-285.99089 C 277.54944,-282.28773 276.62366,-278.58461 275.54558,-274.88152 L 273.64714,-274.88152 C 273.0846,-276.70961 272.51038,-278.66664 271.92448,-280.75261 C 271.33851,-282.83851 270.82289,-284.88929 270.37761,-286.90495 C 269.93226,-288.92054 269.55726,-290.83069 269.25261,-292.63542 C 268.94789,-294.44006 268.79554,-296.02209 268.79558,-297.38152 C 268.79554,-298.22521 268.88929,-299.11584 269.07683,-300.05339 C 269.26429,-300.99084 269.46351,-302.0338 269.67448,-303.1823 C 269.88539,-304.33068 270.08461,-305.61974 270.27214,-307.04948 C 270.45961,-308.47911 270.55335,-310.10801 270.55339,-311.9362 C 270.55335,-316.20176 269.86195,-319.44785 268.47917,-321.67448 C 267.09633,-323.90097 265.3268,-325.01425 263.17058,-325.01433 C 261.5768,-325.01425 260.14712,-324.51034 258.88152,-323.50261 C 257.61587,-322.49472 256.53774,-321.08847 255.64714,-319.28386 C 254.7565,-317.4791 254.07681,-315.34629 253.60808,-312.88542 C 253.13931,-310.42442 252.90494,-307.74083 252.90495,-304.83464 C 252.90494,-301.83458 253.30337,-299.26818 254.10027,-297.13542 C 254.89712,-295.00256 255.78774,-293.05725 256.77214,-291.29948 C 257.75649,-289.54163 258.64712,-287.86585 259.44402,-286.27214 C 260.24087,-284.67835 260.6393,-282.94398 260.63933,-281.06902 C 260.6393,-276.94398 257.99087,-274.88149 252.69402,-274.88152 C 251.42837,-274.88149 250.26822,-274.97524 249.21355,-275.16277 C 248.15885,-275.35024 247.2565,-275.59633 246.50652,-275.90105 C 245.7565,-276.2057 245.18229,-276.53383 244.78386,-276.88542 C 244.38541,-277.23695 244.20963,-277.5768 244.25652,-277.90495 C 244.39713,-278.93617 244.88932,-279.70961 245.73308,-280.22527 C 246.57682,-280.74086 247.46744,-281.32679 248.40495,-281.98308 C 249.34244,-282.63929 250.19791,-283.54163 250.97136,-284.69011 C 251.74478,-285.83851 252.1315,-287.53772 252.13152,-289.78777 C 252.1315,-290.7721 251.96744,-291.80334 251.63933,-292.88152 C 251.31119,-293.95959 250.85416,-294.95569 250.26823,-295.8698 C 249.68228,-296.78381 248.944,-297.53381 248.05339,-298.1198 C 247.16275,-298.70568 246.15494,-298.99865 245.02995,-298.9987 C 244.56119,-298.99865 244.09244,-298.91662 243.6237,-298.75261 C 243.15494,-298.58849 242.67448,-298.40099 242.1823,-298.19011 C 241.6901,-297.97912 241.19792,-297.79162 240.70573,-297.62761 C 240.21354,-297.4635 239.75651,-297.38146 239.33464,-297.38152 C 238.67839,-298.17834 238.25651,-299.13928 238.06902,-300.26433 C 237.88151,-301.38927 237.78776,-302.6549 237.78777,-304.0612 C 237.78776,-305.42052 237.98698,-306.52208 238.38542,-307.36589 C 238.78386,-308.20958 239.3112,-308.88927 239.96745,-309.40495 C 240.6237,-309.92051 241.33854,-310.35411 242.11198,-310.70573 C 242.88541,-311.05723 243.65885,-311.42051 244.4323,-311.79558 C 245.20572,-312.17051 245.90885,-312.62754 246.54167,-313.16667 C 247.17447,-313.70567 247.65494,-314.44395 247.98308,-315.38152 C 250.42056,-322.13144 253.0104,-327.2994 255.75261,-330.88542 C 258.49477,-334.47127 261.48305,-336.26424 264.71745,-336.26433 C 266.31117,-336.26424 267.85805,-335.84236 269.35808,-334.9987 C 270.85804,-334.15487 272.19398,-332.8658 273.36589,-331.13152 C 274.53773,-329.39706 275.47523,-327.18222 276.17839,-324.48698 C 276.88147,-321.7916 277.23304,-318.59238 277.23308,-314.88933 L 277.23308,-310.17839 L 293.33464,-310.17839 z M 314.00652,-310.17839 L 314.00652,-297.38152 L 299.02995,-297.38152 C 298.93619,-296.25647 298.79557,-294.68615 298.60808,-292.67058 C 298.42057,-290.65491 298.20963,-288.55725 297.97527,-286.37761 C 297.74088,-284.19788 297.45963,-282.12367 297.13152,-280.15495 C 296.80338,-278.18617 296.47526,-276.6393 296.14714,-275.51433 L 293.6862,-274.74089 C 292.27995,-278.25648 291.14323,-281.93617 290.27605,-285.77995 C 289.40886,-289.62366 288.78777,-293.49084 288.41277,-297.38152 L 288.41277,-310.17839 L 314.00652,-310.17839 z M 356.33464,-310.17839 L 356.33464,-297.38152 L 343.46745,-297.38152 C 343.37367,-296.25647 343.23304,-294.68615 343.04558,-292.67058 C 342.85804,-290.65491 342.64711,-288.55725 342.41277,-286.37761 C 342.17836,-284.19788 341.89711,-282.12367 341.56902,-280.15495 C 341.24086,-278.18617 340.91273,-276.6393 340.58464,-275.51433 L 338.1237,-274.74089 C 336.71743,-278.25648 335.58071,-281.93617 334.71355,-285.77995 C 333.84633,-289.62366 333.22524,-293.49084 332.85027,-297.38152 L 321.2487,-297.38152 C 321.15494,-296.25647 321.01432,-294.68615 320.82683,-292.67058 C 320.63932,-290.65491 320.42838,-288.55725 320.19402,-286.37761 C 319.95963,-284.19788 319.67838,-282.12367 319.35027,-280.15495 C 319.02213,-278.18617 318.69401,-276.6393 318.36589,-275.51433 L 315.90495,-274.74089 C 314.4987,-278.25648 313.36198,-281.93617 312.4948,-285.77995 C 311.62761,-289.62366 311.00651,-293.49084 310.63152,-297.38152 L 309.22527,-297.38152 L 309.22527,-310.17839 L 356.33464,-310.17839 z M 326.24089,-258.92058 C 326.24087,-258.45182 326.10025,-258.02994 325.81902,-257.65495 C 325.53775,-257.27994 325.17447,-256.89322 324.72917,-256.4948 C 324.28384,-256.09635 323.77994,-255.67447 323.21745,-255.22917 C 322.65494,-254.78385 322.09244,-254.25651 321.52995,-253.64714 C 321.01432,-253.08463 320.569,-252.54557 320.19402,-252.02995 C 319.819,-251.51432 319.47916,-251.05729 319.17448,-250.65886 C 318.86979,-250.26042 318.57682,-249.94401 318.29558,-249.70964 C 318.01432,-249.47526 317.70963,-249.35807 317.38152,-249.35808 C 316.58463,-249.35807 315.91667,-249.55729 315.37761,-249.95573 C 314.83854,-250.35417 314.56901,-250.97526 314.56902,-251.81902 C 314.56901,-252.89713 314.65104,-253.86979 314.81511,-254.73698 C 314.97917,-255.60416 315.2487,-256.57682 315.6237,-257.65495 C 315.85807,-258.31119 316.16276,-259.01432 316.53777,-259.76433 C 316.91276,-260.51431 317.34635,-261.20572 317.83855,-261.83855 C 318.33073,-262.47134 318.86979,-262.98697 319.45573,-263.38542 C 320.04166,-263.78384 320.68619,-263.98306 321.38933,-263.98308 C 322.13932,-263.98306 322.98306,-263.56119 323.92058,-262.71745 C 325.46744,-261.31119 326.24087,-260.04556 326.24089,-258.92058 L 326.24089,-258.92058 z M 344.80339,-258.92058 C 344.80335,-258.45182 344.66273,-258.02994 344.38152,-257.65495 C 344.10023,-257.27994 343.73695,-256.89322 343.29167,-256.4948 C 342.84633,-256.09635 342.34242,-255.67447 341.77995,-255.22917 C 341.21742,-254.78385 340.65492,-254.25651 340.09245,-253.64714 C 339.5768,-253.08463 339.13149,-252.54557 338.75652,-252.02995 C 338.38149,-251.51432 338.04164,-251.05729 337.73698,-250.65886 C 337.43227,-250.26042 337.1393,-249.94401 336.85808,-249.70964 C 336.5768,-249.47526 336.27211,-249.35807 335.94402,-249.35808 C 335.14711,-249.35807 334.47915,-249.55729 333.94011,-249.95573 C 333.40102,-250.35417 333.13149,-250.97526 333.13152,-251.81902 C 333.13149,-252.89713 333.21352,-253.86979 333.37761,-254.73698 C 333.54165,-255.60416 333.81118,-256.57682 334.1862,-257.65495 C 334.42055,-258.31119 334.72524,-259.01432 335.10027,-259.76433 C 335.47524,-260.51431 335.90883,-261.20572 336.40105,-261.83855 C 336.89321,-262.47134 337.43227,-262.98697 338.01823,-263.38542 C 338.60414,-263.78384 339.24867,-263.98306 339.95183,-263.98308 C 340.7018,-263.98306 341.54555,-263.56119 342.48308,-262.71745 C 344.02992,-261.31119 344.80335,-260.04556 344.80339,-258.92058 L 344.80339,-258.92058 z M 377.00652,-310.17839 L 377.00652,-297.38152 L 362.02995,-297.38152 C 361.93619,-296.25647 361.79557,-294.68615 361.60808,-292.67058 C 361.42057,-290.65491 361.20963,-288.55725 360.97527,-286.37761 C 360.74088,-284.19788 360.45963,-282.12367 360.13152,-280.15495 C 359.80338,-278.18617 359.47526,-276.6393 359.14714,-275.51433 L 356.6862,-274.74089 C 355.27995,-278.25648 354.14323,-281.93617 353.27605,-285.77995 C 352.40886,-289.62366 351.78777,-293.49084 351.41277,-297.38152 L 351.41277,-310.17839 L 377.00652,-310.17839 z M 420.95183,-341.7487 C 417.71741,-336.77986 414.60022,-331.82284 411.60027,-326.87761 C 408.60023,-321.93222 406.04554,-316.85801 403.9362,-311.65495 C 401.17055,-304.95177 398.90883,-298.01428 397.15105,-290.84245 C 395.39321,-283.67054 394.20962,-276.12367 393.60027,-268.20183 C 390.97525,-269.56118 388.52603,-271.42446 386.25261,-273.79167 C 383.97916,-276.15883 381.98697,-278.71351 380.27605,-281.45573 C 378.5651,-284.19788 377.17057,-286.97522 376.09245,-289.78777 C 375.01433,-292.60022 374.38151,-295.13147 374.19402,-297.38152 L 372.22527,-297.38152 L 372.22527,-310.17839 L 378.97527,-310.17839 L 378.97527,-302.44402 C 378.97526,-300.66271 379.29166,-298.65881 379.92448,-296.4323 C 380.55729,-294.20569 381.34244,-292.03772 382.27995,-289.92839 C 383.21744,-287.81897 384.20182,-285.8971 385.23308,-284.16277 C 386.26431,-282.42835 387.17838,-281.18617 387.97527,-280.4362 C 387.694,-281.46742 387.65884,-283.24867 387.8698,-285.77995 C 388.08072,-288.31116 388.50259,-291.21741 389.13542,-294.4987 C 389.76822,-297.7799 390.56509,-301.24865 391.52605,-304.90495 C 392.48696,-308.56114 393.60024,-312.02989 394.86589,-315.3112 C 396.41274,-319.2955 397.8893,-323.09238 399.29558,-326.70183 C 400.7018,-330.31112 401.94399,-333.63924 403.02214,-336.6862 C 404.10023,-339.73298 404.96742,-342.48689 405.6237,-344.94792 C 406.27992,-347.40876 406.60804,-349.50641 406.60808,-351.24089 C 406.60804,-351.99078 406.50257,-352.9986 406.29167,-354.26433 C 406.0807,-355.52984 405.85804,-356.79547 405.6237,-358.0612 C 405.38929,-359.32671 405.16664,-360.48687 404.95573,-361.54167 C 404.74476,-362.59624 404.6393,-363.31109 404.63933,-363.6862 C 404.6393,-364.90483 404.79164,-365.79546 405.09636,-366.35808 C 405.40101,-366.92046 406.02211,-367.20171 406.95964,-367.20183 C 407.24086,-367.20171 407.63929,-366.90874 408.15495,-366.32292 C 408.67054,-365.73686 409.16273,-364.99858 409.63152,-364.10808 C 410.75648,-361.95171 411.75257,-359.98296 412.6198,-358.20183 C 413.48694,-356.42047 414.34241,-354.68609 415.1862,-352.9987 C 416.02991,-351.3111 416.90881,-349.56501 417.82292,-347.76042 C 418.73694,-345.95563 419.77991,-343.95173 420.95183,-341.7487 L 420.95183,-341.7487 z "
       id="text2230" />
  </g>
</svg>
